# xmcd
#
# Track frame offsets:
#	150
#	17719
#	39209
#	55998
#	76842
#	90121
#	109008
#	122766
#	142717
#	165124
#	181904
#	205763
#	225082
#
# Disc length: 3197 seconds
#
# Revision: 0
# Processed by: cddbd v1.5.1PL0 Copyright (c) Steve Scherf et al.
# Submitted via: dBpowerAMP V4.0
#
DISCID=810c7b0d
DTITLE=Marvin Sease - Playa Haters
DYEAR=2005
DGENRE=Blues
TTITLE0=Bad Love Affair
TTITLE1=Playa Haters
TTITLE2=Everything You Eat Ain't Good
TTITLE3=I Wana Do Ya
TTITLE4=Pump My Juice
TTITLE5=Too Good To Be With You
TTITLE6=Pack It Up
TTITLE7=Cheatin' John
TTITLE8=Mrs. Right
TTITLE9=Who's Knocking At My Door
TTITLE10=I Wanna Rock You
TTITLE11=Sit Down On It
TTITLE12=F. A. Ya'LL
EXTD=
EXTT0=
EXTT1=
EXTT2=
EXTT3=
EXTT4=
EXTT5=
EXTT6=
EXTT7=
EXTT8=
EXTT9=
EXTT10=
EXTT11=
EXTT12=
PLAYORDER=
